STARTFONT 2.3
FONT -FontForge-Zen Loop-Book-R-Normal--20-200-72-72-P-64-ISO10646-1
SIZE 20 72 72  4
FONTBOUNDINGBOX 17 24 -2 -6
COMMENT "Generated by fontforge, http://fontforge.sourceforge.net"
COMMENT "Copyright 2021 The Zen-Loop Project Authors (https://github.com/googlefonts/zen-loop)"
STARTPROPERTIES 40
FOUNDRY "FontForge"
FAMILY_NAME "Zen Loop"
WEIGHT_NAME "Book"
SLANT "R"
SETWIDTH_NAME "Normal"
ADD_STYLE_NAME ""
PIXEL_SIZE 20
POINT_SIZE 200
RESOLUTION_X 72
RESOLUTION_Y 72
SPACING "P"
AVERAGE_WIDTH 64
CHARSET_REGISTRY "ISO10646"
CHARSET_ENCODING "1"
FONTNAME_REGISTRY ""
CHARSET_COLLECTIONS "ISO10646-1"
BITS_PER_PIXEL 4
FONT_NAME "ZenLoop-Regular"
FACE_NAME "Zen Loop Regular"
COPYRIGHT "Copyright 2021 The Zen-Loop Project Authors (https://github.com/googlefonts/zen-loop)"
FONT_VERSION "1.000; ttfautohint (v1.8.3)"
FONT_ASCENT 16
FONT_DESCENT 4
UNDERLINE_POSITION -3
UNDERLINE_THICKNESS 1
X_HEIGHT 9
CAP_HEIGHT 13
RAW_ASCENT 800
RAW_DESCENT 200
NORM_SPACE 5
RELATIVE_WEIGHT 40
RELATIVE_SETWIDTH 50
SUPERSCRIPT_X 0
SUPERSCRIPT_Y 7
SUPERSCRIPT_SIZE 12
SUBSCRIPT_X 0
SUBSCRIPT_Y 1
SUBSCRIPT_SIZE 12
AVG_LOWERCASE_WIDTH 58
AVG_UPPERCASE_WIDTH 76
ENDPROPERTIES
CHARS 248
STARTCHAR CR
ENCODING 13
SWIDTH 600 0
DWIDTH 12 0
BBX 1 1 0 0
BITMAP
00
ENDCHAR
STARTCHAR space
ENCODING 32
SWIDTH 240 0
DWIDTH 5 0
BBX 1 1 0 0
BITMAP
00
ENDCHAR
STARTCHAR exclam
ENCODING 33
SWIDTH 141 0
DWIDTH 3 0
BBX 1 14 1 0
BITMAP
60
60
60
60
60
60
60
60
60
60
10
00
60
60
ENDCHAR
STARTCHAR quotedbl
ENCODING 34
SWIDTH 195 0
DWIDTH 4 0
BBX 2 4 1 10
BITMAP
66
66
66
55
ENDCHAR
STARTCHAR numbersign
ENCODING 35
SWIDTH 454 0
DWIDTH 9 0
BBX 9 14 0 0
BITMAP
0004200600
0006001600
0006004300
0006006000
047A77A740
0034007000
0051006000
0060015000
0060043000
37A77A7500
0060070000
0340070000
0510060000
0600140000
ENDCHAR
STARTCHAR dollar
ENCODING 36
SWIDTH 356 0
DWIDTH 7 0
BBX 7 19 0 -3
BITMAP
00060000
00060000
027A7300
08060700
16060100
26060000
07060000
03560000
00490000
00087000
00062700
00060340
10060070
60060060
26060520
037A6400
00060000
00060000
00020000
ENDCHAR
STARTCHAR percent
ENCODING 37
SWIDTH 470 0
DWIDTH 9 0
BBX 9 14 0 0
BITMAP
0567000500
0701603400
2400607000
1500616000
0703461000
0265070000
0000430000
0000737500
0002580630
0006250060
0006430070
0051240060
0070070330
0240056700
ENDCHAR
STARTCHAR ampersand
ENCODING 38
SWIDTH 520 0
DWIDTH 10 0
BBX 10 14 0 0
BITMAP
0002772000
0007007000
0007007000
0007042000
0007350000
0006600000
0035600471
0160700613
0700435200
1600077000
3400047000
2500059000
0700171700
0366700174
ENDCHAR
STARTCHAR quotesingle
ENCODING 39
SWIDTH 121 0
DWIDTH 2 0
BBX 1 4 1 10
BITMAP
60
60
60
50
ENDCHAR
STARTCHAR parenleft
ENCODING 40
SWIDTH 233 0
DWIDTH 5 0
BBX 3 17 1 -1
BITMAP
0010
0070
0340
0700
0600
3400
6100
6000
6000
6000
6000
5100
2400
0600
0600
0250
0060
ENDCHAR
STARTCHAR parenright
ENCODING 41
SWIDTH 233 0
DWIDTH 5 0
BBX 4 17 0 -2
BITMAP
3300
0700
0420
0060
0060
0060
0042
0033
0033
0042
0051
0060
0060
0340
0700
2500
1000
ENDCHAR
STARTCHAR asterisk
ENCODING 42
SWIDTH 313 0
DWIDTH 6 0
BBX 6 5 0 9
BITMAP
001500
141532
028B40
017530
021030
ENDCHAR
STARTCHAR plus
ENCODING 43
SWIDTH 577 0
DWIDTH 12 0
BBX 10 10 1 0
BITMAP
0000600000
0000600000
0000600000
0000600000
6777A77773
0000600000
0000600000
0000600000
0000600000
0000600000
ENDCHAR
STARTCHAR comma
ENCODING 44
SWIDTH 145 0
DWIDTH 3 0
BBX 2 4 0 -2
BITMAP
05
06
06
44
ENDCHAR
STARTCHAR hyphen
ENCODING 45
SWIDTH 286 0
DWIDTH 6 0
BBX 5 1 0 6
BITMAP
177750
ENDCHAR
STARTCHAR period
ENCODING 46
SWIDTH 181 0
DWIDTH 4 0
BBX 1 2 1 0
BITMAP
60
50
ENDCHAR
STARTCHAR slash
ENCODING 47
SWIDTH 292 0
DWIDTH 6 0
BBX 6 17 0 -1
BITMAP
000006
000025
000061
000070
000160
000510
000700
000600
005200
007000
006000
043000
070000
060000
340000
600000
600000
ENDCHAR
STARTCHAR zero
ENCODING 48
SWIDTH 378 0
DWIDTH 8 0
BBX 7 14 0 0
BITMAP
00667200
03400700
07000420
08000050
16000070
25000060
34000070
34000070
25000060
16000070
08000050
07000420
03400700
00567200
ENDCHAR
STARTCHAR one
ENCODING 49
SWIDTH 303 0
DWIDTH 6 0
BBX 6 14 0 0
BITMAP
049500
241500
001500
001500
001500
001500
001500
001500
001500
001500
001500
001500
001500
377974
ENDCHAR
STARTCHAR two
ENCODING 50
SWIDTH 343 0
DWIDTH 7 0
BBX 7 14 0 0
BITMAP
02777200
08000700
01000600
00000610
00000600
00000700
00004300
00016000
00080000
00710000
04400000
07000000
52000000
77777720
ENDCHAR
STARTCHAR three
ENCODING 51
SWIDTH 377 0
DWIDTH 8 0
BBX 7 14 0 0
BITMAP
00767300
06100700
00000510
00000610
00000700
01778500
02663700
00000150
00000060
00000070
00000070
00000160
34000710
05667300
ENDCHAR
STARTCHAR four
ENCODING 52
SWIDTH 389 0
DWIDTH 8 0
BBX 7 14 0 0
BITMAP
00004300
00007000
00034000
00070000
00250600
00600600
01500600
06000600
16000600
37777A60
00000600
00000600
00000600
00000600
ENDCHAR
STARTCHAR five
ENCODING 53
SWIDTH 372 0
DWIDTH 7 0
BBX 7 15 0 0
BITMAP
00000140
00966400
00600000
00600000
00600000
00600000
00A77100
07701800
25600250
18100070
00000070
00000060
00000160
33000710
06667300
ENDCHAR
STARTCHAR six
ENCODING 54
SWIDTH 360 0
DWIDTH 7 0
BBX 7 14 0 0
BITMAP
00017000
00080000
00620000
01700000
05200000
07000000
07266300
16500610
24000160
34000070
15000060
07000250
07100710
01767300
ENDCHAR
STARTCHAR seven
ENCODING 55
SWIDTH 321 0
DWIDTH 6 0
BBX 6 14 0 0
BITMAP
377778
000024
000060
000060
000150
000610
000600
001500
005100
006000
015000
051000
060000
060000
ENDCHAR
STARTCHAR eight
ENCODING 56
SWIDTH 377 0
DWIDTH 8 0
BBX 7 14 0 0
BITMAP
01766400
07100520
07000060
07000060
07000520
01802600
001A7000
00825400
07100620
16000070
34000070
16000070
08000440
01766500
ENDCHAR
STARTCHAR nine
ENCODING 57
SWIDTH 360 0
DWIDTH 7 0
BBX 7 14 0 0
BITMAP
02767200
07000700
25000520
52000240
61000160
34000150
08004440
02674520
00000700
00000700
00005200
00017000
00071000
00620000
ENDCHAR
STARTCHAR colon
ENCODING 58
SWIDTH 181 0
DWIDTH 4 0
BBX 1 10 1 0
BITMAP
60
50
00
00
00
00
00
00
60
50
ENDCHAR
STARTCHAR semicolon
ENCODING 59
SWIDTH 165 0
DWIDTH 3 0
BBX 2 12 0 -2
BITMAP
06
06
00
00
00
00
00
00
05
06
06
44
ENDCHAR
STARTCHAR less
ENCODING 60
SWIDTH 482 0
DWIDTH 10 0
BBX 8 8 1 1
BITMAP
00000034
00003740
00374000
27400000
85000000
02750000
00027500
00000274
ENDCHAR
STARTCHAR equal
ENCODING 61
SWIDTH 577 0
DWIDTH 12 0
BBX 10 4 1 3
BITMAP
6777777773
0000000000
0000000000
6777777773
ENDCHAR
STARTCHAR greater
ENCODING 62
SWIDTH 482 0
DWIDTH 10 0
BBX 8 8 1 1
BITMAP
66100000
01661000
00017600
00000185
00001661
00166100
16610000
61000000
ENDCHAR
STARTCHAR question
ENCODING 63
SWIDTH 300 0
DWIDTH 6 0
BBX 5 14 0 0
BITMAP
077730
420070
000070
000070
000350
000700
005200
007000
006000
007000
000000
000000
006000
005000
ENDCHAR
STARTCHAR at
ENCODING 64
SWIDTH 748 0
DWIDTH 15 0
BBX 15 14 0 0
BITMAP
0000477777600000
0017400273282000
0081001706008100
0520007006001700
0700025006000700
1600070000000510
2400070270000520
2400340760000600
1600610670000700
0700700A30005300
0520603B00055000
0081175177721000
0017400000057000
0000377777720000
ENDCHAR
STARTCHAR A
ENCODING 65
SWIDTH 414 0
DWIDTH 8 0
BBX 8 14 0 0
BITMAP
00026000
00067000
00076000
00063300
00430600
00700700
00700610
01600240
04877780
07000070
07000051
15000015
51000007
60000006
ENDCHAR
STARTCHAR B
ENCODING 66
SWIDTH 375 0
DWIDTH 8 0
BBX 6 14 1 0
BITMAP
877810
600070
600061
600033
600034
657452
6715A0
617790
600034
600006
600006
600034
600080
877820
ENDCHAR
STARTCHAR C
ENCODING 67
SWIDTH 366 0
DWIDTH 7 0
BBX 7 14 0 0
BITMAP
00376730
01600000
07000000
07000000
06000000
24000000
34000000
34000000
24000000
06000000
07000000
07000000
01600000
00376740
ENDCHAR
STARTCHAR D
ENCODING 68
SWIDTH 396 0
DWIDTH 8 0
BBX 7 14 1 0
BITMAP
87774000
60006200
60000700
60000700
60000700
60000610
60000520
60000520
60000610
60000700
60000700
60000700
60006200
87774000
ENDCHAR
STARTCHAR E
ENCODING 69
SWIDTH 309 0
DWIDTH 6 0
BBX 5 14 1 0
BITMAP
877720
600000
600000
600000
600000
600000
977710
600000
600000
600000
600000
600000
600000
877720
ENDCHAR
STARTCHAR F
ENCODING 70
SWIDTH 299 0
DWIDTH 6 0
BBX 5 14 1 0
BITMAP
877720
600000
600000
600000
600000
600000
977710
600000
600000
600000
600000
600000
600000
600000
ENDCHAR
STARTCHAR G
ENCODING 71
SWIDTH 382 0
DWIDTH 8 0
BBX 7 14 0 0
BITMAP
00376630
01600000
07000000
07000000
06000000
24000000
34000000
34005670
24000060
06000060
07000060
07000060
01600070
00376730
ENDCHAR
STARTCHAR H
ENCODING 72
SWIDTH 425 0
DWIDTH 9 0
BBX 7 14 1 0
BITMAP
60000240
60000240
60000240
60000240
60000240
60000240
97777840
60000240
60000240
60000240
60000240
60000240
60000240
60000240
ENDCHAR
STARTCHAR I
ENCODING 73
SWIDTH 141 0
DWIDTH 3 0
BBX 1 14 1 0
BITMAP
60
60
60
60
60
60
60
60
60
60
60
60
60
60
ENDCHAR
STARTCHAR J
ENCODING 74
SWIDTH 142 0
DWIDTH 3 0
BBX 4 18 -2 -4
BITMAP
0006
0006
0006
0006
0006
0006
0006
0006
0006
0006
0006
0006
0006
0006
0006
0006
0043
4750
ENDCHAR
STARTCHAR K
ENCODING 75
SWIDTH 401 0
DWIDTH 8 0
BBX 8 14 0 0
BITMAP
04100081
05100530
05100700
05103400
05107000
49785000
79725200
05100600
05100420
05100160
05100060
05100060
05100060
04100042
ENDCHAR
STARTCHAR L
ENCODING 76
SWIDTH 347 0
DWIDTH 7 0
BBX 6 14 1 0
BITMAP
600000
600000
600000
600000
600000
600000
600000
600000
600000
600000
600000
600000
600000
877772
ENDCHAR
STARTCHAR M
ENCODING 77
SWIDTH 534 0
DWIDTH 11 0
BBX 10 14 0 0
BITMAP
03900002A0
0458002870
0511837060
06002B0051
0600643042
0600625033
0600571024
06001A0015
0600490006
0600561006
0600290006
0600000006
0600000006
1500000006
ENDCHAR
STARTCHAR N
ENCODING 78
SWIDTH 422 0
DWIDTH 8 0
BBX 7 14 1 0
BITMAP
80000230
B2000340
77000340
67100340
62600340
60700340
60430340
60070340
60061340
60016340
60006340
60002740
60000940
60000530
ENDCHAR
STARTCHAR O
ENCODING 79
SWIDTH 446 0
DWIDTH 9 0
BBX 9 14 0 0
BITMAP
0037673000
0160007100
0700001600
0700000700
0600000700
2400000610
3400000520
3400000520
2400000610
0600000700
0700000700
0700001600
0260007100
0037673000
ENDCHAR
STARTCHAR P
ENCODING 80
SWIDTH 341 0
DWIDTH 7 0
BBX 6 14 1 0
BITMAP
877720
600070
600052
600043
600061
600360
977500
600000
600000
600000
600000
600000
600000
600000
ENDCHAR
STARTCHAR Q
ENCODING 81
SWIDTH 446 0
DWIDTH 9 0
BBX 9 20 0 -6
BITMAP
0037673000
0160007100
0600001600
0700000700
0600000700
2400000610
3400000520
3400000520
2600000610
1A50005B00
0736054700
0702A31600
0272847100
004B6B3000
0005360000
0000B10000
0000B10000
0002730000
0001830000
0000500000
ENDCHAR
STARTCHAR R
ENCODING 82
SWIDTH 380 0
DWIDTH 8 0
BBX 7 14 0 0
BITMAP
09777400
06000710
06000340
06000150
06000420
6A652500
3A668100
06000600
06000600
06000420
06000150
06000060
06000060
06000050
ENDCHAR
STARTCHAR S
ENCODING 83
SWIDTH 356 0
DWIDTH 7 0
BBX 7 14 0 0
BITMAP
02777300
08000700
15000100
15000000
07000000
03500000
00460000
00027000
00001700
00000440
00000070
60000060
26000520
03777400
ENDCHAR
STARTCHAR T
ENCODING 84
SWIDTH 377 0
DWIDTH 8 0
BBX 8 14 0 0
BITMAP
577A7772
00060000
00060000
00060000
00060000
00060000
00060000
00060000
00060000
00060000
00060000
00060000
00060000
00060000
ENDCHAR
STARTCHAR U
ENCODING 85
SWIDTH 412 0
DWIDTH 8 0
BBX 7 14 1 0
BITMAP
60000230
60000340
60000340
60000340
60000340
60000340
60000340
60000340
60000340
60000340
60000330
60000420
71000700
17667200
ENDCHAR
STARTCHAR V
ENCODING 86
SWIDTH 384 0
DWIDTH 8 0
BBX 8 14 0 0
BITMAP
60000024
61000051
24000060
06000060
06000150
06100510
03400600
00600600
00601500
00605200
00336000
00066000
00075000
00072000
ENDCHAR
STARTCHAR W
ENCODING 87
SWIDTH 534 0
DWIDTH 11 0
BBX 10 14 0 0
BITMAP
1500000006
0600000006
0600000006
0600000006
0600490006
0600642006
0600642015
0600480024
0600090033
06003A0042
0600725051
0515205260
0455000770
03800001A0
ENDCHAR
STARTCHAR X
ENCODING 88
SWIDTH 318 0
DWIDTH 6 0
BBX 7 14 0 0
BITMAP
42000600
06002400
06006000
03406000
00743000
00670000
00280000
00680000
00742000
03406000
07006000
06002400
52000700
60000510
ENDCHAR
STARTCHAR Y
ENCODING 89
SWIDTH 370 0
DWIDTH 7 0
BBX 8 14 0 0
BITMAP
60000051
43000070
07000430
05100700
00602500
00607000
00166000
00091000
00060000
00060000
00060000
00060000
00060000
00060000
ENDCHAR
STARTCHAR Z
ENCODING 90
SWIDTH 309 0
DWIDTH 6 0
BBX 6 14 0 0
BITMAP
377778
000033
000060
000060
000520
000600
001500
006100
006000
024000
060000
060000
430000
877775
ENDCHAR
STARTCHAR bracketleft
ENCODING 91
SWIDTH 193 0
DWIDTH 4 0
BBX 3 18 1 -2
BITMAP
7750
6000
6000
6000
6000
6000
6000
6000
6000
6000
6000
6000
6000
6000
6000
6000
6000
7750
ENDCHAR
STARTCHAR backslash
ENCODING 92
SWIDTH 292 0
DWIDTH 6 0
BBX 6 17 0 -1
BITMAP
600000
600000
340000
070000
070000
043000
006000
007000
004200
000600
000700
000510
000160
000060
000061
000015
000006
ENDCHAR
STARTCHAR bracketright
ENCODING 93
SWIDTH 193 0
DWIDTH 4 0
BBX 3 18 0 -2
BITMAP
6760
0060
0060
0060
0060
0060
0060
0060
0060
0060
0060
0060
0060
0060
0060
0060
0060
6760
ENDCHAR
STARTCHAR asciicircum
ENCODING 94
SWIDTH 416 0
DWIDTH 8 0
BBX 8 8 0 6
BITMAP
00038000
00076100
00241600
00700710
02500160
07000070
16000025
61000007
ENDCHAR
STARTCHAR underscore
ENCODING 95
SWIDTH 556 0
DWIDTH 11 0
BBX 11 1 0 -1
BITMAP
166666666610
ENDCHAR
STARTCHAR grave
ENCODING 96
SWIDTH 201 0
DWIDTH 4 0
BBX 2 3 1 11
BITMAP
20
61
07
ENDCHAR
STARTCHAR a
ENCODING 97
SWIDTH 315 0
DWIDTH 6 0
BBX 6 10 0 0
BITMAP
047730
050070
000060
000060
000590
037260
170060
520060
520190
186665
ENDCHAR
STARTCHAR b
ENCODING 98
SWIDTH 298 0
DWIDTH 6 0
BBX 5 15 1 0
BITMAP
600000
600000
600000
600000
600000
877200
800700
600600
600510
600420
600520
600510
600600
800700
767200
ENDCHAR
STARTCHAR c
ENCODING 99
SWIDTH 275 0
DWIDTH 6 0
BBX 5 10 0 0
BITMAP
017730
070070
070010
250000
340000
340000
250000
070010
070070
017730
ENDCHAR
STARTCHAR d
ENCODING 100
SWIDTH 298 0
DWIDTH 6 0
BBX 5 15 0 0
BITMAP
000060
000060
000060
000060
000060
027780
060080
060060
250060
340060
340060
250060
060060
060080
037670
ENDCHAR
STARTCHAR e
ENCODING 101
SWIDTH 285 0
DWIDTH 6 0
BBX 6 10 0 0
BITMAP
017720
070070
080070
260061
397781
340000
250000
060000
060070
017640
ENDCHAR
STARTCHAR f
ENCODING 102
SWIDTH 178 0
DWIDTH 4 0
BBX 5 15 0 0
BITMAP
005740
035000
060000
060000
060000
6A7300
060000
060000
060000
060000
060000
060000
060000
060000
060000
ENDCHAR
STARTCHAR g
ENCODING 103
SWIDTH 302 0
DWIDTH 6 0
BBX 7 15 0 -4
BITMAP
00007000
02887000
07007000
07006000
07005200
07005100
07007000
07117000
04B71000
17000000
05652000
71015600
60000610
70000700
27667300
ENDCHAR
STARTCHAR h
ENCODING 104
SWIDTH 307 0
DWIDTH 6 0
BBX 5 15 1 0
BITMAP
600000
600000
600000
600000
600000
777600
910610
600420
600420
600420
600420
600420
600420
600420
600420
ENDCHAR
STARTCHAR i
ENCODING 105
SWIDTH 141 0
DWIDTH 3 0
BBX 1 13 1 0
BITMAP
60
60
00
60
60
60
60
60
60
60
60
60
60
ENDCHAR
STARTCHAR j
ENCODING 106
SWIDTH 141 0
DWIDTH 3 0
BBX 4 17 -2 -4
BITMAP
0006
0006
0000
0006
0006
0006
0006
0006
0006
0006
0006
0006
0006
0006
0006
0034
3760
ENDCHAR
STARTCHAR k
ENCODING 107
SWIDTH 287 0
DWIDTH 6 0
BBX 5 15 1 0
BITMAP
600000
600000
600000
600000
600000
600600
603400
617000
684000
A37000
706000
603400
600700
600600
600330
ENDCHAR
STARTCHAR l
ENCODING 108
SWIDTH 141 0
DWIDTH 3 0
BBX 1 15 1 0
BITMAP
60
60
60
60
60
60
60
60
60
60
60
60
60
60
60
ENDCHAR
STARTCHAR m
ENCODING 109
SWIDTH 407 0
DWIDTH 8 0
BBX 7 10 1 0
BITMAP
94001A20
65528520
60690420
60480420
60660420
60660420
60360420
60000420
60000420
60000420
ENDCHAR
STARTCHAR n
ENCODING 110
SWIDTH 307 0
DWIDTH 6 0
BBX 5 10 1 0
BITMAP
677600
910610
600420
600420
600420
600420
600420
600420
600420
600420
ENDCHAR
STARTCHAR o
ENCODING 111
SWIDTH 309 0
DWIDTH 6 0
BBX 6 10 0 0
BITMAP
017720
070070
070051
250034
340015
340015
250034
070051
070070
017720
ENDCHAR
STARTCHAR p
ENCODING 112
SWIDTH 299 0
DWIDTH 6 0
BBX 6 15 0 -4
BITMAP
060000
2A6720
360070
060070
060052
060043
060042
060051
060070
080070
086720
060000
060000
060000
060000
ENDCHAR
STARTCHAR q
ENCODING 113
SWIDTH 286 0
DWIDTH 6 0
BBX 6 14 0 -4
BITMAP
027770
070080
060060
250060
340060
340060
250060
060060
070080
027780
000060
000060
000060
000055
ENDCHAR
STARTCHAR r
ENCODING 114
SWIDTH 277 0
DWIDTH 6 0
BBX 5 10 1 0
BITMAP
677600
910610
600310
600000
600000
600000
600000
600000
600000
600000
ENDCHAR
STARTCHAR s
ENCODING 115
SWIDTH 257 0
DWIDTH 5 0
BBX 5 10 0 0
BITMAP
067710
250130
240000
070000
037000
002700
000250
100070
520070
077810
ENDCHAR
STARTCHAR t
ENCODING 116
SWIDTH 207 0
DWIDTH 4 0
BBX 4 13 0 0
BITMAP
0200
0510
0510
5974
0510
0510
0510
0510
0510
0510
0510
0420
0183
ENDCHAR
STARTCHAR u
ENCODING 117
SWIDTH 307 0
DWIDTH 6 0
BBX 4 10 1 0
BITMAP
6006
6006
6006
6006
6006
6006
6006
6006
600A
5667
ENDCHAR
STARTCHAR v
ENCODING 118
SWIDTH 285 0
DWIDTH 6 0
BBX 6 10 0 0
BITMAP
600023
520060
150060
060060
060250
051510
024600
006600
007500
006200
ENDCHAR
STARTCHAR w
ENCODING 119
SWIDTH 396 0
DWIDTH 8 0
BBX 8 10 0 0
BITMAP
51000024
52000033
33054042
24077061
16066060
07066060
07065070
07177170
07801770
08300370
ENDCHAR
STARTCHAR x
ENCODING 120
SWIDTH 244 0
DWIDTH 5 0
BBX 5 10 0 0
BITMAP
430420
070700
071600
038100
00A000
01B000
063400
070700
250610
600150
ENDCHAR
STARTCHAR y
ENCODING 121
SWIDTH 285 0
DWIDTH 6 0
BBX 6 14 0 -4
BITMAP
600023
520061
150060
060060
060150
061510
024600
006600
007600
007200
006000
006000
016000
571000
ENDCHAR
STARTCHAR z
ENCODING 122
SWIDTH 233 0
DWIDTH 5 0
BBX 5 10 0 0
BITMAP
277A20
000600
001600
005100
006000
015000
060000
060000
340000
777710
ENDCHAR
STARTCHAR braceleft
ENCODING 123
SWIDTH 306 0
DWIDTH 6 0
BBX 6 18 0 -2
BITMAP
000276
000600
000600
000600
000600
000600
000600
000600
476600
476600
000600
000600
000600
000600
000600
000600
000600
000276
ENDCHAR
STARTCHAR bar
ENCODING 124
SWIDTH 141 0
DWIDTH 3 0
BBX 1 17 1 -1
BITMAP
60
60
60
60
60
60
60
60
60
60
60
60
60
60
60
60
60
ENDCHAR
STARTCHAR braceright
ENCODING 125
SWIDTH 306 0
DWIDTH 6 0
BBX 6 18 0 -2
BITMAP
672000
006000
006000
006000
006000
006000
006000
006000
006675
005674
006000
006000
006000
006000
006000
006000
006000
672000
ENDCHAR
STARTCHAR asciitilde
ENCODING 126
SWIDTH 433 0
DWIDTH 9 0
BBX 8 2 0 5
BITMAP
05773005
14004772
ENDCHAR
STARTCHAR uni00A0
ENCODING 160
SWIDTH 240 0
DWIDTH 5 0
BBX 1 1 0 0
BITMAP
00
ENDCHAR
STARTCHAR exclamdown
ENCODING 161
SWIDTH 141 0
DWIDTH 3 0
BBX 1 14 1 -3
BITMAP
60
60
00
10
60
60
60
60
60
60
60
60
60
60
ENDCHAR
STARTCHAR cent
ENCODING 162
SWIDTH 275 0
DWIDTH 6 0
BBX 5 14 0 -2
BITMAP
001100
003300
004500
038750
073360
063300
253300
343300
153300
073330
074380
019920
003300
003300
ENDCHAR
STARTCHAR sterling
ENCODING 163
SWIDTH 331 0
DWIDTH 7 0
BBX 7 14 0 0
BITMAP
05777100
26000700
61000100
61000000
34000000
07000000
03400000
27B76000
00700000
00600000
00700000
01600000
07100000
79777710
ENDCHAR
STARTCHAR currency
ENCODING 164
SWIDTH 506 0
DWIDTH 10 0
BBX 8 9 1 2
BITMAP
50000005
36777764
08100080
25000034
43000015
16000053
09300290
54577536
30000002
ENDCHAR
STARTCHAR yen
ENCODING 165
SWIDTH 370 0
DWIDTH 7 0
BBX 8 14 0 0
BITMAP
60000051
34000070
07000520
04300700
00704300
00527000
00094000
00070000
057A7710
00060000
057A7710
00060000
00060000
00060000
ENDCHAR
STARTCHAR brokenbar
ENCODING 166
SWIDTH 141 0
DWIDTH 3 0
BBX 1 17 1 -1
BITMAP
60
60
60
60
60
60
60
00
00
00
60
60
60
60
60
60
60
ENDCHAR
STARTCHAR section
ENCODING 167
SWIDTH 303 0
DWIDTH 6 0
BBX 6 18 0 -2
BITMAP
037730
170062
510003
510000
170000
047000
019B10
0B66B0
260063
240033
050040
015410
000740
000071
000016
300016
440072
047730
ENDCHAR
STARTCHAR dieresis
ENCODING 168
SWIDTH 241 0
DWIDTH 5 0
BBX 3 2 1 11
BITMAP
6060
6060
ENDCHAR
STARTCHAR copyright
ENCODING 169
SWIDTH 772 0
DWIDTH 15 0
BBX 15 15 0 0
BITMAP
0000057776200000
0004720001570000
0045002771018000
0260008010001600
0700033000000610
0700050000000150
2500060000000070
3400060000000070
2500050000000070
0700033000000150
0700008000000610
0260002771001600
0055000000018000
0004720000570000
0000057776200000
ENDCHAR
STARTCHAR ordfeminine
ENCODING 170
SWIDTH 231 0
DWIDTH 5 0
BBX 4 6 0 8
BITMAP
1782
0016
0046
1736
6016
4779
ENDCHAR
STARTCHAR guillemotleft
ENCODING 171
SWIDTH 403 0
DWIDTH 8 0
BBX 8 8 0 2
BITMAP
00053071
00450630
02604400
17026000
08027000
01703500
00360540
00043061
ENDCHAR
STARTCHAR logicalnot
ENCODING 172
SWIDTH 557 0
DWIDTH 11 0
BBX 11 4 0 3
BITMAP
177777777730
000000000150
000000000150
000000000130
ENDCHAR
STARTCHAR uni00AD
ENCODING 173
SWIDTH 286 0
DWIDTH 6 0
BBX 5 1 0 6
BITMAP
177750
ENDCHAR
STARTCHAR registered
ENCODING 174
SWIDTH 772 0
DWIDTH 15 0
BBX 15 15 0 0
BITMAP
0000057776200000
0004720001570000
0045000000018000
0260007750001600
0700006043000610
0700006015000150
2500006062000070
3400009790000070
2500006052000070
0700006016000150
0700006006000610
0260006006001600
0055000001018000
0004720000570000
0000057776200000
ENDCHAR
STARTCHAR macron
ENCODING 175
SWIDTH 266 0
DWIDTH 5 0
BBX 3 1 1 12
BITMAP
5760
ENDCHAR
STARTCHAR degree
ENCODING 176
SWIDTH 350 0
DWIDTH 7 0
BBX 5 6 1 9
BITMAP
067600
720260
700070
700070
620260
067600
ENDCHAR
STARTCHAR plusminus
ENCODING 177
SWIDTH 577 0
DWIDTH 12 0
BBX 10 10 1 0
BITMAP
0000600000
0000600000
0000600000
0000600000
6777A77773
0000600000
0000600000
0000600000
0000200000
6777777773
ENDCHAR
STARTCHAR uni00B2
ENCODING 178
SWIDTH 207 0
DWIDTH 4 0
BBX 4 6 0 8
BITMAP
0882
1116
0052
0260
0700
4863
ENDCHAR
STARTCHAR uni00B3
ENCODING 179
SWIDTH 214 0
DWIDTH 4 0
BBX 4 6 0 8
BITMAP
0781
0042
02A0
0015
0006
2771
ENDCHAR
STARTCHAR acute
ENCODING 180
SWIDTH 201 0
DWIDTH 4 0
BBX 2 3 1 11
BITMAP
02
16
70
ENDCHAR
STARTCHAR uni00B5
ENCODING 181
SWIDTH 335 0
DWIDTH 7 0
BBX 6 14 1 -4
BITMAP
600420
600420
600420
600420
600420
600420
600420
600420
700620
966771
600000
600000
600000
600000
ENDCHAR
STARTCHAR paragraph
ENCODING 182
SWIDTH 471 0
DWIDTH 9 0
BBX 8 14 1 0
BITMAP
05CFF333
4FFFF333
AFFFF333
BFFFF333
AFFFF333
5FFFF333
07EFF333
00014333
00003333
00003333
00003333
00003333
00003333
00003333
ENDCHAR
STARTCHAR periodcentered
ENCODING 183
SWIDTH 181 0
DWIDTH 4 0
BBX 1 2 1 5
BITMAP
60
50
ENDCHAR
STARTCHAR cedilla
ENCODING 184
SWIDTH 232 0
DWIDTH 5 0
BBX 3 4 1 -4
BITMAP
1300
5710
0160
5710
ENDCHAR
STARTCHAR uni00B9
ENCODING 185
SWIDTH 176 0
DWIDTH 4 0
BBX 4 6 0 8
BITMAP
3910
0510
0510
0510
0510
3971
ENDCHAR
STARTCHAR ordmasculine
ENCODING 186
SWIDTH 201 0
DWIDTH 4 0
BBX 4 6 0 8
BITMAP
0770
4224
6006
6006
4224
0770
ENDCHAR
STARTCHAR guillemotright
ENCODING 187
SWIDTH 403 0
DWIDTH 8 0
BBX 8 8 0 2
BITMAP
17035000
03505300
00540720
00062081
00053071
00450630
02604400
17026000
ENDCHAR
STARTCHAR onequarter
ENCODING 188
SWIDTH 527 0
DWIDTH 11 0
BBX 9 14 1 0
BITMAP
6700000600
0600001600
0600006100
0600016000
0600061000
6A40160000
0000610000
0000600000
0006104200
0007007100
0061025600
0070070600
0520086A30
0600000600
ENDCHAR
STARTCHAR onehalf
ENCODING 189
SWIDTH 540 0
DWIDTH 11 0
BBX 9 14 1 0
BITMAP
6700000600
0600001600
0600006100
0600016000
0600061000
6A40160000
0000610000
0000600000
0006106750
0007002060
0061000250
0070000700
0520006100
060001A640
ENDCHAR
STARTCHAR threequarters
ENCODING 190
SWIDTH 517 0
DWIDTH 10 0
BBX 10 14 0 0
BITMAP
0781000060
0042000160
02A0000610
0015001600
0006006100
2771016000
0000061000
0000060000
0000610150
0000700610
0006100660
0007005160
00520076A4
0060000060
ENDCHAR
STARTCHAR questiondown
ENCODING 191
SWIDTH 300 0
DWIDTH 6 0
BBX 5 14 1 -3
BITMAP
005000
006000
000000
000000
007000
006000
007000
035000
070000
520000
700000
700000
700240
377700
ENDCHAR
STARTCHAR Agrave
ENCODING 192
SWIDTH 414 0
DWIDTH 8 0
BBX 8 17 0 0
BITMAP
00060000
00052000
00000000
00026000
00067000
00076000
00063300
00430600
00700700
00700610
01600240
04877780
07000070
07000051
15000015
51000007
60000006
ENDCHAR
STARTCHAR Aacute
ENCODING 193
SWIDTH 414 0
DWIDTH 8 0
BBX 8 17 0 0
BITMAP
00002400
00007000
00000000
00026000
00067000
00076000
00063300
00430600
00700700
00700610
01600240
04877780
07000070
07000051
15000015
51000007
60000006
ENDCHAR
STARTCHAR Acircumflex
ENCODING 194
SWIDTH 414 0
DWIDTH 8 0
BBX 8 17 0 0
BITMAP
00024000
00076200
00110200
00026000
00067000
00076000
00063300
00430600
00700700
00700610
01600240
04877780
07000070
07000051
15000015
51000007
60000006
ENDCHAR
STARTCHAR Atilde
ENCODING 195
SWIDTH 414 0
DWIDTH 8 0
BBX 8 17 0 0
BITMAP
00371400
00406500
00000000
00026000
00067000
00076000
00063300
00430600
00700700
00700610
01600240
04877780
07000070
07000051
15000015
51000007
60000006
ENDCHAR
STARTCHAR Adieresis
ENCODING 196
SWIDTH 414 0
DWIDTH 8 0
BBX 8 17 0 0
BITMAP
00062400
00062300
00000000
00026000
00067000
00076000
00063300
00430600
00700700
00700610
01600240
04877780
07000070
07000051
15000015
51000007
60000006
ENDCHAR
STARTCHAR Aring
ENCODING 197
SWIDTH 414 0
DWIDTH 8 0
BBX 8 18 0 0
BITMAP
00057000
00064300
00056000
00000000
00026000
00067000
00076000
00063300
00430600
00700700
00700610
01600240
04877780
07000070
07000051
15000015
51000007
60000006
ENDCHAR
STARTCHAR AE
ENCODING 198
SWIDTH 545 0
DWIDTH 11 0
BBX 10 14 0 0
BITMAP
0000039776
0000085000
0000175000
0000625000
0000715000
0004315000
0008019775
0026015000
0077775000
0070015000
0520015000
0700015000
3400015000
6000019776
ENDCHAR
STARTCHAR Ccedilla
ENCODING 199
SWIDTH 366 0
DWIDTH 7 0
BBX 7 18 0 -4
BITMAP
00376730
01600000
07000000
07000000
06000000
24000000
34000000
34000000
24000000
06000000
07000000
07000000
01600000
00376740
00004000
00038300
00000700
00047300
ENDCHAR
STARTCHAR Egrave
ENCODING 200
SWIDTH 309 0
DWIDTH 6 0
BBX 5 17 1 0
BITMAP
070000
034000
000000
877720
600000
600000
600000
600000
600000
977710
600000
600000
600000
600000
600000
600000
877720
ENDCHAR
STARTCHAR Eacute
ENCODING 201
SWIDTH 309 0
DWIDTH 6 0
BBX 5 17 1 0
BITMAP
001600
006000
000000
877720
600000
600000
600000
600000
600000
977710
600000
600000
600000
600000
600000
600000
877720
ENDCHAR
STARTCHAR Ecircumflex
ENCODING 202
SWIDTH 309 0
DWIDTH 6 0
BBX 5 17 1 0
BITMAP
015000
075400
020200
877720
600000
600000
600000
600000
600000
977710
600000
600000
600000
600000
600000
600000
877720
ENDCHAR
STARTCHAR Edieresis
ENCODING 203
SWIDTH 309 0
DWIDTH 6 0
BBX 5 17 1 0
BITMAP
060600
060500
000000
877720
600000
600000
600000
600000
600000
977710
600000
600000
600000
600000
600000
600000
877720
ENDCHAR
STARTCHAR Igrave
ENCODING 204
SWIDTH 141 0
DWIDTH 3 0
BBX 2 17 0 0
BITMAP
70
25
00
06
06
06
06
06
06
06
06
06
06
06
06
06
06
ENDCHAR
STARTCHAR Iacute
ENCODING 205
SWIDTH 141 0
DWIDTH 3 0
BBX 2 17 1 0
BITMAP
06
51
00
60
60
60
60
60
60
60
60
60
60
60
60
60
60
ENDCHAR
STARTCHAR Icircumflex
ENCODING 206
SWIDTH 141 0
DWIDTH 3 0
BBX 3 17 0 0
BITMAP
0500
6450
2020
0600
0600
0600
0600
0600
0600
0600
0600
0600
0600
0600
0600
0600
0600
ENDCHAR
STARTCHAR Idieresis
ENCODING 207
SWIDTH 141 0
DWIDTH 3 0
BBX 3 17 0 0
BITMAP
6060
6060
0000
0600
0600
0600
0600
0600
0600
0600
0600
0600
0600
0600
0600
0600
0600
ENDCHAR
STARTCHAR Eth
ENCODING 208
SWIDTH 396 0
DWIDTH 8 0
BBX 8 14 0 0
BITMAP
08777400
06000620
06000070
06000070
06000070
06000061
06000052
5A750052
06000061
06000070
06000070
06000070
06000620
08777400
ENDCHAR
STARTCHAR Ntilde
ENCODING 209
SWIDTH 422 0
DWIDTH 8 0
BBX 7 17 1 0
BITMAP
02724000
04065000
00000000
80000230
B2000340
77000340
67100340
62600340
60700340
60430340
60070340
60061340
60016340
60006340
60002740
60000940
60000530
ENDCHAR
STARTCHAR Ograve
ENCODING 210
SWIDTH 446 0
DWIDTH 9 0
BBX 9 17 0 0
BITMAP
0006000000
0001500000
0000000000
0037673000
0160007100
0700001600
0700000700
0600000700
2400000610
3400000520
3400000520
2400000610
0600000700
0700000700
0700001600
0260007100
0037673000
ENDCHAR
STARTCHAR Oacute
ENCODING 211
SWIDTH 446 0
DWIDTH 9 0
BBX 9 17 0 0
BITMAP
0000060000
0000510000
0000000000
0037673000
0160007100
0700001600
0700000700
0600000700
2400000610
3400000520
3400000520
2400000610
0600000700
0700000700
0700001600
0260007100
0037673000
ENDCHAR
STARTCHAR Ocircumflex
ENCODING 212
SWIDTH 446 0
DWIDTH 9 0
BBX 9 17 0 0
BITMAP
0000600000
0006450000
0002020000
0037673000
0160007100
0700001600
0700000700
0600000700
2400000610
3400000520
3400000520
2400000610
0600000700
0700000700
0700001600
0260007100
0037673000
ENDCHAR
STARTCHAR Otilde
ENCODING 213
SWIDTH 446 0
DWIDTH 9 0
BBX 9 17 0 0
BITMAP
0017431000
0022470000
0000000000
0037673000
0160007100
0700001600
0700000700
0600000700
2400000610
3400000520
3400000520
2400000610
0600000700
0700000700
0700001600
0260007100
0037673000
ENDCHAR
STARTCHAR Odieresis
ENCODING 214
SWIDTH 446 0
DWIDTH 9 0
BBX 9 17 0 0
BITMAP
0006060000
0006060000
0000000000
0037673000
0160007100
0700001600
0700000700
0600000700
2400000610
3400000520
3400000520
2400000610
0600000700
0700000700
0700001600
0260007100
0037673000
ENDCHAR
STARTCHAR multiply
ENCODING 215
SWIDTH 445 0
DWIDTH 9 0
BBX 8 9 1 0
BITMAP
10000000
27000071
02700720
00277200
00088000
00722700
07200270
72000023
10000000
ENDCHAR
STARTCHAR Oslash
ENCODING 216
SWIDTH 446 0
DWIDTH 9 0
BBX 9 14 0 0
BITMAP
0037672600
0170009300
0700008600
0700025700
0600070700
2400160610
3400600510
3401600520
2406100610
0607000700
0752000700
0770001600
0470007100
0637673000
ENDCHAR
STARTCHAR Ugrave
ENCODING 217
SWIDTH 412 0
DWIDTH 8 0
BBX 7 17 1 0
BITMAP
01600000
00520000
00000000
60000230
60000340
60000340
60000340
60000340
60000340
60000340
60000340
60000340
60000340
60000330
60000420
71000700
17667200
ENDCHAR
STARTCHAR Uacute
ENCODING 218
SWIDTH 412 0
DWIDTH 8 0
BBX 7 17 1 0
BITMAP
00034000
00070000
00000000
60000230
60000340
60000340
60000340
60000340
60000340
60000340
60000340
60000340
60000340
60000330
60000420
71000700
17667200
ENDCHAR
STARTCHAR Ucircumflex
ENCODING 219
SWIDTH 412 0
DWIDTH 8 0
BBX 7 17 1 0
BITMAP
00240000
00762000
01102000
60000230
60000340
60000340
60000340
60000340
60000340
60000340
60000340
60000340
60000340
60000330
60000420
71000700
17667200
ENDCHAR
STARTCHAR Udieresis
ENCODING 220
SWIDTH 412 0
DWIDTH 8 0
BBX 7 17 1 0
BITMAP
00633000
00633000
00000000
60000230
60000340
60000340
60000340
60000340
60000340
60000340
60000340
60000340
60000340
60000330
60000420
71000700
17667200
ENDCHAR
STARTCHAR Yacute
ENCODING 221
SWIDTH 370 0
DWIDTH 7 0
BBX 8 17 0 0
BITMAP
00007000
00024000
00000000
60000051
43000070
07000430
05100700
00602500
00607000
00166000
00091000
00060000
00060000
00060000
00060000
00060000
00060000
ENDCHAR
STARTCHAR Thorn
ENCODING 222
SWIDTH 341 0
DWIDTH 7 0
BBX 6 14 1 0
BITMAP
600000
600000
977600
600170
600061
600043
600052
600070
600360
977500
600000
600000
600000
600000
ENDCHAR
STARTCHAR germandbls
ENCODING 223
SWIDTH 327 0
DWIDTH 7 0
BBX 5 14 1 0
BITMAP
276400
700700
600610
600510
600600
656800
656700
600250
600070
600070
600070
600250
600600
666400
ENDCHAR
STARTCHAR agrave
ENCODING 224
SWIDTH 315 0
DWIDTH 6 0
BBX 6 14 0 0
BITMAP
001000
007000
003400
000000
047730
050070
000060
000060
000590
037260
170060
520060
520190
186665
ENDCHAR
STARTCHAR aacute
ENCODING 225
SWIDTH 315 0
DWIDTH 6 0
BBX 6 14 0 0
BITMAP
000010
000610
002500
000000
047730
050070
000060
000060
000590
037260
170060
520060
520190
186665
ENDCHAR
STARTCHAR acircumflex
ENCODING 226
SWIDTH 315 0
DWIDTH 6 0
BBX 6 14 0 0
BITMAP
005700
026440
020020
000000
047730
050070
000060
000060
000590
037260
170060
520060
520190
186665
ENDCHAR
STARTCHAR atilde
ENCODING 227
SWIDTH 315 0
DWIDTH 6 0
BBX 6 13 0 0
BITMAP
047140
040650
000000
047730
050070
000060
000060
000590
037260
170060
520060
520190
186665
ENDCHAR
STARTCHAR adieresis
ENCODING 228
SWIDTH 315 0
DWIDTH 6 0
BBX 6 13 0 0
BITMAP
024240
024240
000000
047730
050070
000060
000060
000590
037260
170060
520060
520190
186665
ENDCHAR
STARTCHAR aring
ENCODING 229
SWIDTH 315 0
DWIDTH 6 0
BBX 6 14 0 0
BITMAP
006700
016430
006700
000000
047730
050070
000060
000060
000590
037260
170060
520060
520190
186665
ENDCHAR
STARTCHAR ae
ENCODING 230
SWIDTH 450 0
DWIDTH 9 0
BBX 9 10 0 0
BITMAP
0567346500
0400650610
0000A10340
0000900150
0037B77740
0840700000
4300700000
6100700000
4301930420
0767176600
ENDCHAR
STARTCHAR ccedilla
ENCODING 231
SWIDTH 275 0
DWIDTH 6 0
BBX 5 14 0 -4
BITMAP
017730
070070
070010
250000
340000
340000
250000
070010
070070
017730
002100
007600
000430
006700
ENDCHAR
STARTCHAR egrave
ENCODING 232
SWIDTH 285 0
DWIDTH 6 0
BBX 6 14 0 0
BITMAP
011000
007000
003400
000000
017720
070070
080070
260061
397781
340000
250000
060000
060070
017640
ENDCHAR
STARTCHAR eacute
ENCODING 233
SWIDTH 285 0
DWIDTH 6 0
BBX 6 14 0 0
BITMAP
000010
000610
002500
000000
017720
070070
080070
260061
397781
340000
250000
060000
060070
017640
ENDCHAR
STARTCHAR ecircumflex
ENCODING 234
SWIDTH 285 0
DWIDTH 6 0
BBX 6 14 0 0
BITMAP
005600
026430
020020
000000
017720
070070
080070
260061
397781
340000
250000
060000
060070
017640
ENDCHAR
STARTCHAR edieresis
ENCODING 235
SWIDTH 285 0
DWIDTH 6 0
BBX 6 13 0 0
BITMAP
024240
024240
000000
017720
070070
080070
260061
397781
340000
250000
060000
060070
017640
ENDCHAR
STARTCHAR igrave
ENCODING 236
SWIDTH 141 0
DWIDTH 3 0
BBX 2 14 0 0
BITMAP
20
61
07
00
06
06
06
06
06
06
06
06
06
06
ENDCHAR
STARTCHAR iacute
ENCODING 237
SWIDTH 141 0
DWIDTH 3 0
BBX 2 14 1 0
BITMAP
02
25
70
00
60
60
60
60
60
60
60
60
60
60
ENDCHAR
STARTCHAR icircumflex
ENCODING 238
SWIDTH 141 0
DWIDTH 3 0
BBX 4 14 -1 0
BITMAP
0291
0717
1102
0000
0060
0060
0060
0060
0060
0060
0060
0060
0060
0060
ENDCHAR
STARTCHAR idieresis
ENCODING 239
SWIDTH 141 0
DWIDTH 3 0
BBX 3 13 0 0
BITMAP
6060
6060
0000
0600
0600
0600
0600
0600
0600
0600
0600
0600
0600
ENDCHAR
STARTCHAR eth
ENCODING 240
SWIDTH 319 0
DWIDTH 6 0
BBX 6 15 0 0
BITMAP
044000
006201
003B71
024340
000070
0176A1
070044
070007
150007
340007
340007
150016
070043
070070
017630
ENDCHAR
STARTCHAR ntilde
ENCODING 241
SWIDTH 307 0
DWIDTH 6 0
BBX 5 13 1 0
BITMAP
471400
406500
000000
677600
910610
600420
600420
600420
600420
600420
600420
600420
600420
ENDCHAR
STARTCHAR ograve
ENCODING 242
SWIDTH 309 0
DWIDTH 6 0
BBX 6 14 0 0
BITMAP
002000
007000
003400
000000
017720
070070
070051
250034
340015
340015
250034
070051
070070
017720
ENDCHAR
STARTCHAR oacute
ENCODING 243
SWIDTH 309 0
DWIDTH 6 0
BBX 6 14 0 0
BITMAP
000020
000610
001600
000000
017720
070070
070051
250034
340015
340015
250034
070051
070070
017720
ENDCHAR
STARTCHAR ocircumflex
ENCODING 244
SWIDTH 309 0
DWIDTH 6 0
BBX 6 14 0 0
BITMAP
005700
026440
020020
000000
017720
070070
070051
250034
340015
340015
250034
070051
070070
017720
ENDCHAR
STARTCHAR otilde
ENCODING 245
SWIDTH 309 0
DWIDTH 6 0
BBX 6 13 0 0
BITMAP
047140
040650
000000
017720
070070
070051
250034
340015
340015
250034
070051
070070
017720
ENDCHAR
STARTCHAR odieresis
ENCODING 246
SWIDTH 309 0
DWIDTH 6 0
BBX 6 13 0 0
BITMAP
025250
014140
000000
017720
070070
070051
250034
340015
340015
250034
070051
070070
017720
ENDCHAR
STARTCHAR divide
ENCODING 247
SWIDTH 577 0
DWIDTH 12 0
BBX 10 10 1 0
BITMAP
0000600000
0000600000
0000000000
0000000000
6777777773
0000000000
0000000000
0000000000
0000600000
0000600000
ENDCHAR
STARTCHAR oslash
ENCODING 248
SWIDTH 309 0
DWIDTH 6 0
BBX 6 10 0 0
BITMAP
017672
0700A0
0702A1
250634
340615
245215
157034
094051
090070
077720
ENDCHAR
STARTCHAR ugrave
ENCODING 249
SWIDTH 307 0
DWIDTH 6 0
BBX 4 14 1 0
BITMAP
0100
0700
0340
0000
6006
6006
6006
6006
6006
6006
6006
6006
600A
5667
ENDCHAR
STARTCHAR uacute
ENCODING 250
SWIDTH 307 0
DWIDTH 6 0
BBX 4 14 1 0
BITMAP
0001
0061
0250
0000
6006
6006
6006
6006
6006
6006
6006
6006
600A
5667
ENDCHAR
STARTCHAR ucircumflex
ENCODING 251
SWIDTH 307 0
DWIDTH 6 0
BBX 4 14 1 0
BITMAP
0570
2644
2002
0000
6006
6006
6006
6006
6006
6006
6006
6006
600A
5667
ENDCHAR
STARTCHAR udieresis
ENCODING 252
SWIDTH 307 0
DWIDTH 6 0
BBX 4 13 1 0
BITMAP
2424
2424
0000
6006
6006
6006
6006
6006
6006
6006
6006
600A
5667
ENDCHAR
STARTCHAR yacute
ENCODING 253
SWIDTH 285 0
DWIDTH 6 0
BBX 6 18 0 -4
BITMAP
000100
000700
004300
000000
600023
520061
150060
060060
060150
061510
024600
006600
007600
007200
006000
006000
016000
571000
ENDCHAR
STARTCHAR thorn
ENCODING 254
SWIDTH 299 0
DWIDTH 6 0
BBX 6 18 0 -4
BITMAP
060000
060000
060000
060000
2A6720
360070
060070
060052
060043
060042
060051
060070
080070
086720
060000
060000
060000
060000
ENDCHAR
STARTCHAR ydieresis
ENCODING 255
SWIDTH 285 0
DWIDTH 6 0
BBX 6 17 0 -4
BITMAP
051510
051510
000000
600023
520061
150060
060060
060150
061510
024600
006600
007600
007200
006000
006000
016000
571000
ENDCHAR
STARTCHAR dotlessi
ENCODING 305
SWIDTH 141 0
DWIDTH 3 0
BBX 1 10 1 0
BITMAP
60
60
60
60
60
60
60
60
60
60
ENDCHAR
STARTCHAR OE
ENCODING 338
SWIDTH 505 0
DWIDTH 10 0
BBX 10 14 0 0
BITMAP
00377A7771
0270060000
0700060000
0700060000
1600060000
2400060000
3400097760
3400060000
2500060000
0600060000
0700060000
0700060000
0170060000
00377A7771
ENDCHAR
STARTCHAR oe
ENCODING 339
SWIDTH 492 0
DWIDTH 10 0
BBX 10 10 0 0
BITMAP
0176206630
0700551070
0700570061
2500380043
34001A7782
3400160000
2500380000
0700570000
0700751061
0177207650
ENDCHAR
STARTCHAR Wcircumflex
ENCODING 372
SWIDTH 534 0
DWIDTH 11 0
BBX 10 17 0 0
BITMAP
0000050000
0000754000
0000202000
1500000006
0600000006
0600000006
0600000006
0600490006
0600642006
0600642015
0600480024
0600090033
06003A0042
0600725051
0515205260
0455000770
03800001A0
ENDCHAR
STARTCHAR wcircumflex
ENCODING 373
SWIDTH 396 0
DWIDTH 8 0
BBX 8 14 0 0
BITMAP
00065000
00345200
00200200
00000000
51000024
52000033
33054042
24077061
16066060
07066060
07065070
07177170
07801770
08300370
ENDCHAR
STARTCHAR Ycircumflex
ENCODING 374
SWIDTH 370 0
DWIDTH 7 0
BBX 8 17 0 0
BITMAP
00051000
00457000
00202000
60000051
43000070
07000430
05100700
00602500
00607000
00166000
00091000
00060000
00060000
00060000
00060000
00060000
00060000
ENDCHAR
STARTCHAR ycircumflex
ENCODING 375
SWIDTH 285 0
DWIDTH 6 0
BBX 6 18 0 -4
BITMAP
007500
043610
020020
000000
600023
520061
150060
060060
060150
061510
024600
006600
007600
007200
006000
006000
016000
571000
ENDCHAR
STARTCHAR Ydieresis
ENCODING 376
SWIDTH 370 0
DWIDTH 7 0
BBX 8 17 0 0
BITMAP
00606000
00606000
00000000
60000051
43000070
07000430
05100700
00602500
00607000
00166000
00091000
00060000
00060000
00060000
00060000
00060000
00060000
ENDCHAR
STARTCHAR uni0237
ENCODING 567
SWIDTH 141 0
DWIDTH 3 0
BBX 4 14 -2 -4
BITMAP
0006
0006
0006
0006
0006
0006
0006
0006
0006
0006
0006
0006
0034
3760
ENDCHAR
STARTCHAR circumflex
ENCODING 710
SWIDTH 280 0
DWIDTH 6 0
BBX 4 3 1 11
BITMAP
0840
5371
2002
ENDCHAR
STARTCHAR ring
ENCODING 730
SWIDTH 238 0
DWIDTH 5 0
BBX 3 3 1 11
BITMAP
4720
7070
4720
ENDCHAR
STARTCHAR tilde
ENCODING 732
SWIDTH 301 0
DWIDTH 6 0
BBX 4 2 1 11
BITMAP
4714
4175
ENDCHAR
STARTCHAR gravecomb
ENCODING 768
SWIDTH 0 0
DWIDTH 0 0
BBX 2 3 1 11
BITMAP
20
61
07
ENDCHAR
STARTCHAR acutecomb
ENCODING 769
SWIDTH 0 0
DWIDTH 0 0
BBX 2 3 1 11
BITMAP
02
16
70
ENDCHAR
STARTCHAR uni0302
ENCODING 770
SWIDTH 0 0
DWIDTH 0 0
BBX 4 3 1 11
BITMAP
0840
5371
2002
ENDCHAR
STARTCHAR tildecomb
ENCODING 771
SWIDTH 0 0
DWIDTH 0 0
BBX 4 2 1 11
BITMAP
4714
4175
ENDCHAR
STARTCHAR uni0307
ENCODING 775
SWIDTH 0 0
DWIDTH 0 0
BBX 1 2 1 11
BITMAP
60
60
ENDCHAR
STARTCHAR uni0308
ENCODING 776
SWIDTH 0 0
DWIDTH 0 0
BBX 3 2 1 11
BITMAP
6060
6060
ENDCHAR
STARTCHAR uni030A
ENCODING 778
SWIDTH 0 0
DWIDTH 0 0
BBX 3 3 1 11
BITMAP
4720
7070
4720
ENDCHAR
STARTCHAR uni0327
ENCODING 807
SWIDTH 0 0
DWIDTH 0 0
BBX 3 4 1 -4
BITMAP
1300
5710
0160
5710
ENDCHAR
STARTCHAR Wgrave
ENCODING 7808
SWIDTH 534 0
DWIDTH 11 0
BBX 10 17 0 0
BITMAP
0000700000
0000340000
0000000000
1500000006
0600000006
0600000006
0600000006
0600490006
0600642006
0600642015
0600480024
0600090033
06003A0042
0600725051
0515205260
0455000770
03800001A0
ENDCHAR
STARTCHAR wgrave
ENCODING 7809
SWIDTH 396 0
DWIDTH 8 0
BBX 8 14 0 0
BITMAP
00110000
00070000
00043000
00000000
51000024
52000033
33054042
24077061
16066060
07066060
07065070
07177170
07801770
08300370
ENDCHAR
STARTCHAR Wacute
ENCODING 7810
SWIDTH 534 0
DWIDTH 11 0
BBX 10 17 0 0
BITMAP
0000016000
0000061000
0000000000
1500000006
0600000006
0600000006
0600000006
0600490006
0600642006
0600642015
0600480024
0600090033
06003A0042
0600725051
0515205260
0455000770
03800001A0
ENDCHAR
STARTCHAR wacute
ENCODING 7811
SWIDTH 396 0
DWIDTH 8 0
BBX 8 14 0 0
BITMAP
00001100
00007000
00034000
00000000
51000024
52000033
33054042
24077061
16066060
07066060
07065070
07177170
07801770
08300370
ENDCHAR
STARTCHAR Wdieresis
ENCODING 7812
SWIDTH 534 0
DWIDTH 11 0
BBX 10 17 0 0
BITMAP
0000606000
0000606000
0000000000
1500000006
0600000006
0600000006
0600000006
0600490006
0600642006
0600642015
0600480024
0600090033
06003A0042
0600725051
0515205260
0455000770
03800001A0
ENDCHAR
STARTCHAR wdieresis
ENCODING 7813
SWIDTH 396 0
DWIDTH 8 0
BBX 8 13 0 0
BITMAP
00434300
00323200
00000000
51000024
52000033
33054042
24077061
16066060
07066060
07065070
07177170
07801770
08300370
ENDCHAR
STARTCHAR uni1E9E
ENCODING 7838
SWIDTH 375 0
DWIDTH 8 0
BBX 6 14 1 0
BITMAP
176710
600070
600070
600060
600060
636660
636560
600033
600006
600007
600015
600043
600070
666720
ENDCHAR
STARTCHAR Ygrave
ENCODING 7922
SWIDTH 370 0
DWIDTH 7 0
BBX 8 17 0 0
BITMAP
00520000
00070000
00000000
60000051
43000070
07000430
05100700
00602500
00607000
00166000
00091000
00060000
00060000
00060000
00060000
00060000
00060000
ENDCHAR
STARTCHAR ygrave
ENCODING 7923
SWIDTH 285 0
DWIDTH 6 0
BBX 6 18 0 -4
BITMAP
010000
016000
005200
000000
600023
520061
150060
060060
060150
061510
024600
006600
007600
007200
006000
006000
016000
571000
ENDCHAR
STARTCHAR endash
ENCODING 8211
SWIDTH 425 0
DWIDTH 9 0
BBX 8 1 0 5
BITMAP
17777774
ENDCHAR
STARTCHAR emdash
ENCODING 8212
SWIDTH 770 0
DWIDTH 15 0
BBX 15 1 0 5
BITMAP
1777777777777730
ENDCHAR
STARTCHAR quoteleft
ENCODING 8216
SWIDTH 145 0
DWIDTH 3 0
BBX 2 4 1 10
BITMAP
71
60
60
50
ENDCHAR
STARTCHAR quoteright
ENCODING 8217
SWIDTH 145 0
DWIDTH 3 0
BBX 2 4 0 10
BITMAP
05
06
06
26
ENDCHAR
STARTCHAR quotesinglbase
ENCODING 8218
SWIDTH 145 0
DWIDTH 3 0
BBX 2 4 0 -2
BITMAP
05
06
06
44
ENDCHAR
STARTCHAR quotedblleft
ENCODING 8220
SWIDTH 219 0
DWIDTH 4 0
BBX 3 4 1 10
BITMAP
7460
6600
6600
5500
ENDCHAR
STARTCHAR quotedblright
ENCODING 8221
SWIDTH 219 0
DWIDTH 4 0
BBX 4 4 0 10
BITMAP
0515
0616
0625
2671
ENDCHAR
STARTCHAR quotedblbase
ENCODING 8222
SWIDTH 219 0
DWIDTH 4 0
BBX 4 4 0 -2
BITMAP
0532
0643
0642
4480
ENDCHAR
STARTCHAR bullet
ENCODING 8226
SWIDTH 355 0
DWIDTH 7 0
BBX 5 5 1 5
BITMAP
1AFB10
9FFFA0
CFFFD0
8FFFA0
0AEB10
ENDCHAR
STARTCHAR ellipsis
ENCODING 8230
SWIDTH 651 0
DWIDTH 13 0
BBX 11 2 1 0
BITMAP
600006000060
500006000060
ENDCHAR
STARTCHAR guilsinglleft
ENCODING 8249
SWIDTH 263 0
DWIDTH 5 0
BBX 5 8 0 2
BITMAP
000530
004500
026000
170000
080000
017000
003600
000430
ENDCHAR
STARTCHAR guilsinglright
ENCODING 8250
SWIDTH 263 0
DWIDTH 5 0
BBX 5 8 0 2
BITMAP
170000
035000
005400
000620
000530
004500
026000
170000
ENDCHAR
STARTCHAR fraction
ENCODING 8260
SWIDTH 152 0
DWIDTH 3 0
BBX 7 14 -2 0
BITMAP
00000060
00000160
00000600
00001600
00006100
00016000
00061000
00160000
00610000
00600000
06100000
07000000
52000000
60000000
ENDCHAR
STARTCHAR uni2074
ENCODING 8308
SWIDTH 247 0
DWIDTH 5 0
BBX 4 6 0 8
BITMAP
0060
0260
0651
1651
3797
0041
ENDCHAR
STARTCHAR Euro
ENCODING 8364
SWIDTH 391 0
DWIDTH 8 0
BBX 7 14 0 0
BITMAP
00176660
00710000
02500000
06100000
07000000
5B774000
07000000
5A663000
07000000
07000000
04300000
00600000
00620000
00066670
ENDCHAR
STARTCHAR trademark
ENCODING 8482
SWIDTH 506 0
DWIDTH 10 0
BBX 10 8 0 6
BITMAP
8FFD2A11A2
0150289982
0150247742
0150246642
0150246642
0150247742
0150240042
0020120021
ENDCHAR
STARTCHAR minus
ENCODING 8722
SWIDTH 557 0
DWIDTH 11 0
BBX 11 1 0 6
BITMAP
2DDDDDDDDD40
ENDCHAR
STARTCHAR uni2215
ENCODING 8725
SWIDTH 259 0
DWIDTH 5 0
BBX 5 15 0 0
BITMAP
000030
000070
000060
000430
000700
000700
003300
007000
007000
034000
060000
070000
240000
600000
600000
ENDCHAR
STARTCHAR .notdef
ENCODING -1
SWIDTH 500 0
DWIDTH 10 0
BBX 8 18 1 -4
BITMAP
FFFFFFFF
F000000F
F000000F
F000000F
F000000F
F000000F
F000000F
F000000F
F000000F
F000000F
F000000F
F000000F
F000000F
F000000F
F000000F
F000000F
F000000F
FFFFFFFF
ENDCHAR
STARTCHAR NULL
ENCODING -1
SWIDTH 600 0
DWIDTH 12 0
BBX 1 1 0 0
BITMAP
00
ENDCHAR
STARTCHAR acutecomb.case
ENCODING -1
SWIDTH 0 0
DWIDTH 0 0
BBX 2 2 1 15
BITMAP
15
60
ENDCHAR
STARTCHAR uni0302.case
ENCODING -1
SWIDTH 0 0
DWIDTH 0 0
BBX 3 3 1 14
BITMAP
0500
5460
2020
ENDCHAR
STARTCHAR uni0308.case
ENCODING -1
SWIDTH 0 0
DWIDTH 0 0
BBX 3 2 1 15
BITMAP
6060
6060
ENDCHAR
STARTCHAR uni0307.case
ENCODING -1
SWIDTH 0 0
DWIDTH 0 0
BBX 1 2 1 15
BITMAP
60
60
ENDCHAR
STARTCHAR gravecomb.case
ENCODING -1
SWIDTH 0 0
DWIDTH 0 0
BBX 2 2 1 15
BITMAP
60
15
ENDCHAR
STARTCHAR uni030A.case
ENCODING -1
SWIDTH 0 0
DWIDTH 0 0
BBX 3 3 1 15
BITMAP
4710
6150
4710
ENDCHAR
STARTCHAR tildecomb.case
ENCODING -1
SWIDTH 0 0
DWIDTH 0 0
BBX 4 2 1 15
BITMAP
4604
4173
ENDCHAR
ENDFONT
